<mxfile host="app.diagrams.net" modified="2023-04-13T03:50:00.999Z" agent="Mozilla/5.0 (Windows NT 10.0; Win64; x64) AppleWebKit/537.36 (KHTML, like Gecko) Chrome/111.0.0.0 Safari/537.36" etag="xrN91tLtTa47YXXMRfF_" version="21.1.7" type="device">
  <diagram name="Page-1" id="Q_NLSAYgS1TD1FtzC5sk">
    <mxGraphModel dx="1050" dy="558" grid="1" gridSize="10" guides="1" tooltips="1" connect="1" arrows="1" fold="1" page="1" pageScale="1" pageWidth="850" pageHeight="1100" math="0" shadow="0">
      <root>
        <mxCell id="0" />
        <mxCell id="1" parent="0" />
        <mxCell id="8WrpZYbNXLEYwCHwa77f-1" value="Shoppng Cart" style="swimlane;whiteSpace=wrap;html=1;startSize=23;" parent="1" vertex="1">
          <mxGeometry x="100" y="230" width="169" height="230" as="geometry" />
        </mxCell>
        <mxCell id="8WrpZYbNXLEYwCHwa77f-2" value="cartId" style="text;html=1;align=center;verticalAlign=middle;resizable=0;points=[];autosize=1;strokeColor=none;fillColor=none;" parent="8WrpZYbNXLEYwCHwa77f-1" vertex="1">
          <mxGeometry y="30" width="50" height="30" as="geometry" />
        </mxCell>
        <mxCell id="8WrpZYbNXLEYwCHwa77f-3" value="cart_Quantity" style="text;html=1;align=center;verticalAlign=middle;resizable=0;points=[];autosize=1;strokeColor=none;fillColor=none;" parent="8WrpZYbNXLEYwCHwa77f-1" vertex="1">
          <mxGeometry y="60" width="90" height="30" as="geometry" />
        </mxCell>
        <mxCell id="8WrpZYbNXLEYwCHwa77f-4" value="cartPrce" style="text;html=1;align=center;verticalAlign=middle;resizable=0;points=[];autosize=1;strokeColor=none;fillColor=none;" parent="8WrpZYbNXLEYwCHwa77f-1" vertex="1">
          <mxGeometry y="80" width="70" height="30" as="geometry" />
        </mxCell>
        <mxCell id="8WrpZYbNXLEYwCHwa77f-6" value="show Item()" style="text;html=1;align=center;verticalAlign=middle;resizable=0;points=[];autosize=1;strokeColor=none;fillColor=none;" parent="8WrpZYbNXLEYwCHwa77f-1" vertex="1">
          <mxGeometry y="110" width="90" height="30" as="geometry" />
        </mxCell>
        <mxCell id="8WrpZYbNXLEYwCHwa77f-9" value="add Item()" style="text;html=1;align=center;verticalAlign=middle;resizable=0;points=[];autosize=1;strokeColor=none;fillColor=none;" parent="8WrpZYbNXLEYwCHwa77f-1" vertex="1">
          <mxGeometry y="140" width="80" height="30" as="geometry" />
        </mxCell>
        <mxCell id="8WrpZYbNXLEYwCHwa77f-11" value="checkout()" style="text;html=1;align=center;verticalAlign=middle;resizable=0;points=[];autosize=1;strokeColor=none;fillColor=none;" parent="8WrpZYbNXLEYwCHwa77f-1" vertex="1">
          <mxGeometry y="180" width="80" height="30" as="geometry" />
        </mxCell>
        <mxCell id="8WrpZYbNXLEYwCHwa77f-12" value="calcTotalPrice()" style="text;html=1;align=center;verticalAlign=middle;resizable=0;points=[];autosize=1;strokeColor=none;fillColor=none;" parent="8WrpZYbNXLEYwCHwa77f-1" vertex="1">
          <mxGeometry y="200" width="110" height="30" as="geometry" />
        </mxCell>
        <mxCell id="8WrpZYbNXLEYwCHwa77f-10" value="remove Item()" style="text;html=1;align=center;verticalAlign=middle;resizable=0;points=[];autosize=1;strokeColor=none;fillColor=none;" parent="8WrpZYbNXLEYwCHwa77f-1" vertex="1">
          <mxGeometry y="160" width="100" height="30" as="geometry" />
        </mxCell>
        <mxCell id="8WrpZYbNXLEYwCHwa77f-5" value="" style="endArrow=none;html=1;rounded=0;exitX=0;exitY=0.5;exitDx=0;exitDy=0;entryX=1;entryY=0.5;entryDx=0;entryDy=0;" parent="1" source="8WrpZYbNXLEYwCHwa77f-1" target="8WrpZYbNXLEYwCHwa77f-1" edge="1">
          <mxGeometry width="50" height="50" relative="1" as="geometry">
            <mxPoint x="120" y="370" as="sourcePoint" />
            <mxPoint x="330" y="365" as="targetPoint" />
          </mxGeometry>
        </mxCell>
        <mxCell id="3aTes2nb6qmYe6u0vsVm-5" value="Admin" style="swimlane;whiteSpace=wrap;html=1;" vertex="1" parent="1">
          <mxGeometry x="360" y="250" width="210" height="210" as="geometry" />
        </mxCell>
        <mxCell id="3aTes2nb6qmYe6u0vsVm-3" value="adminName: string&lt;br&gt;email: string&lt;br&gt;&lt;br&gt;&lt;br&gt;+createDepartment()&lt;br&gt;+createCategory()&lt;br&gt;+createProduct()&lt;br&gt;+deleteDepartment()&lt;br&gt;+deleteCategory()&lt;br&gt;+deleteProduct()&lt;br&gt;+editCatalogDetails()" style="text;whiteSpace=wrap;html=1;" vertex="1" parent="3aTes2nb6qmYe6u0vsVm-5">
          <mxGeometry y="30" width="210" height="180" as="geometry" />
        </mxCell>
        <mxCell id="3aTes2nb6qmYe6u0vsVm-10" value="" style="endArrow=none;html=1;rounded=0;entryX=1.006;entryY=0.303;entryDx=0;entryDy=0;entryPerimeter=0;" edge="1" parent="3aTes2nb6qmYe6u0vsVm-5">
          <mxGeometry width="50" height="50" relative="1" as="geometry">
            <mxPoint x="-1" y="80" as="sourcePoint" />
            <mxPoint x="210" y="80" as="targetPoint" />
            <Array as="points">
              <mxPoint x="59" y="80" />
            </Array>
          </mxGeometry>
        </mxCell>
        <mxCell id="3aTes2nb6qmYe6u0vsVm-13" value="Customer" style="swimlane;whiteSpace=wrap;html=1;" vertex="1" parent="1">
          <mxGeometry x="310" y="530" width="190" height="240" as="geometry" />
        </mxCell>
        <mxCell id="3aTes2nb6qmYe6u0vsVm-12" value="customerId : int&lt;br&gt;customerName: string&lt;br&gt;address: string&lt;br&gt;email: string &lt;br&gt;-phoneno: int&lt;br&gt;&lt;br&gt;-creditcardInfo: string &lt;br&gt;-shippingInfo: string&lt;br&gt;&lt;br&gt;&lt;br&gt;+register()&lt;br&gt;+login()&lt;br&gt;+updateProfile()&lt;br&gt;+search()" style="text;whiteSpace=wrap;html=1;" vertex="1" parent="3aTes2nb6qmYe6u0vsVm-13">
          <mxGeometry x="10" y="40" width="250" height="220" as="geometry" />
        </mxCell>
        <mxCell id="3aTes2nb6qmYe6u0vsVm-20" value="" style="endArrow=none;html=1;rounded=0;" edge="1" parent="3aTes2nb6qmYe6u0vsVm-13">
          <mxGeometry width="50" height="50" relative="1" as="geometry">
            <mxPoint y="175" as="sourcePoint" />
            <mxPoint x="190" y="170" as="targetPoint" />
          </mxGeometry>
        </mxCell>
      </root>
    </mxGraphModel>
  </diagram>
</mxfile>
